<svg xmlns="http://www.w3.org/2000/svg" viewBox="0 0 800 800">
  <defs>
    <linearGradient id="datadogGradient" x1="0%" y1="0%" x2="100%" y2="100%">
      <stop offset="0%" style="stop-color:#632CA6"/>
      <stop offset="100%" style="stop-color:#632CA6"/>
    </linearGradient>
  </defs>
  <rect width="800" height="800" rx="100" fill="#632CA6"/>
  <g transform="translate(100, 100) scale(0.75)">
    <path fill="#FFFFFF" d="M594.9 437.8c-12.5-3.7-24.7-8.2-36.4-13.4-9.8-4.4-19.2-9.4-28.2-15.1-10.4-6.5-20.3-13.8-29.5-21.7-11.3 16.2-24.2 31.2-38.5 44.7 12.8 8.8 26.1 16.8 40 23.9 14.9 7.6 30.4 14.1 46.3 19.4 17.1 5.7 34.8 10 52.7 12.7 4.5 0.7 9.1 1.3 13.7 1.7-3.1-18.1-8.8-35.5-17-51.5-0.8 0.1-1.7 0.2-2.5 0.3l-0.6-1z"/>
    <path fill="#FFFFFF" d="M316.4 276.5c14.5-7.8 29.8-14.1 45.6-18.8 15.3-4.5 31.1-7.5 47.1-8.9 15.2-1.3 30.5-1.1 45.6 0.6 12.9 1.5 25.6 4 38 7.5 3.2-13.9 7.6-27.4 13-40.5-14.8-4.5-30-7.7-45.4-9.6-18.5-2.2-37.1-2.6-55.7-1.1-19.5 1.6-38.7 5-57.4 10.2-19.3 5.4-38 12.6-55.7 21.5-1.1 0.5-2.1 1.1-3.2 1.7 7.5 12.3 14.3 25.1 20.3 38.3 2.6-0.3 5.2-0.6 7.8-0.9z"/>
    <path fill="#FFFFFF" d="M255.4 414.5c-0.9-19.3-0.1-38.7 2.3-57.9 2.3-18.4 6.2-36.6 11.6-54.3 2.7-8.8 5.8-17.5 9.2-26-14.5-5.5-28.4-12.2-41.7-20-4.9 11.4-9.3 23.1-13.1 35-5.6 17.6-9.8 35.5-12.6 53.7-2.9 19.1-4.3 38.3-4.2 57.6 0.1 20.2 2 40.3 5.6 60.1 0.9 5 1.9 10 3.1 14.9 17.2-2.9 34.7-3.7 52.1-2.4-4.1-20-6.8-40.4-8-60.7-1.1 0-2.2 0-3.3 0l-1-0.1z"/>
    <path fill="#FFFFFF" d="M465.6 566.5c-17.7-3.2-35-8.1-51.6-14.6-16-6.3-31.4-14.1-45.8-23.3-12.3-7.8-23.9-16.6-34.6-26.2-2.6 7.2-5.6 14.3-8.8 21.2-5.5 11.5-11.8 22.6-18.8 33.2 12.6 10.1 26 19.2 40.1 27.1 15.8 8.9 32.3 16.5 49.4 22.6 18.3 6.6 37.2 11.5 56.4 14.7 20.1 3.3 40.5 4.8 60.9 4.5 3.5-0.1 7.1-0.2 10.6-0.4-2.1-20.3-6.6-40.3-13.4-59.3-14.4 1.2-29 1.3-43.5 0.2l-0.9 0.3z"/>
    <ellipse fill="#FFFFFF" cx="400" cy="380" rx="180" ry="160"/>
    <ellipse fill="#632CA6" cx="400" cy="380" rx="120" ry="100"/>
    <path fill="#FFFFFF" d="M340 340 L380 380 L340 420 L300 380 Z"/>
    <path fill="#FFFFFF" d="M460 340 L500 380 L460 420 L420 380 Z"/>
  </g>
</svg>
